<?xml version="1.0" encoding="UTF-8" standalone="no"?>
<svg
   xmlns:dc="http://purl.org/dc/elements/1.1/"
   xmlns:cc="http://creativecommons.org/ns#"
   xmlns:rdf="http://www.w3.org/1999/02/22-rdf-syntax-ns#"
   xmlns:svg="http://www.w3.org/2000/svg"
   xmlns="http://www.w3.org/2000/svg"
   id="svg8"
   version="1.1"
   viewBox="0 0 210 297"
   height="297mm"
   width="210mm">
  <defs
     id="defs2" />
  <metadata
     id="metadata5">
    <rdf:RDF>
      <cc:Work
         rdf:about="">
        <dc:format>image/svg+xml</dc:format>
        <dc:type
           rdf:resource="http://purl.org/dc/dcmitype/StillImage" />
        <dc:title></dc:title>
      </cc:Work>
    </rdf:RDF>
  </metadata>
  <g
     id="layer1">
    <rect
       y="-21.731443"
       x="-5.2694135"
       height="46.869045"
       width="189.74405"
       id="rect902"
       style="fill:#08436f;fill-opacity:1;stroke-width:0.264583" />
    <g
       transform="translate(6.4144687,50.246671)"
       id="g934">
      <path
         style="fill:#ffffff;stroke-width:0.114941"
         d="m 42.580006,88.630643 c -2.532762,-0.36623 -4.417025,-1.04614 -6.666614,-2.40557 l -0.977004,-0.59041 1.091946,-0.0248 c 9.221584,-0.20915 17.343717,-3.47366 23.826458,-9.5765 0.61902,-0.58274 1.158202,-1.02681 1.198183,-0.98683 0.127767,0.12776 -0.50354,2.42768 -0.955181,3.47983 -0.943723,2.19849 -2.018477,3.76653 -3.769657,5.49982 -1.79671,1.77837 -3.774761,2.99363 -6.255954,3.8435 -2.281512,0.78147 -5.258844,1.08385 -7.492177,0.76092 z m 48.696934,-2.78525 c -0.04214,-0.0421 -0.07663,-0.84386 -0.07663,-1.7816 v -1.70496 h 0.287354 0.287355 v 1.78159 c 0,1.65098 -0.01547,1.7816 -0.210726,1.7816 -0.115901,0 -0.245212,-0.0345 -0.287355,-0.0766 z m 10.29757,-0.11241 c -0.20507,-0.10109 -0.48954,-0.37147 -0.63218,-0.60083 -0.24097,-0.38749 -0.25933,-0.54725 -0.25933,-2.25608 0,-1.81967 0.003,-1.83946 0.25861,-1.8758 0.25771,-0.0366 0.25862,-0.031 0.25862,1.58414 0,1.75259 0.11171,2.24176 0.58814,2.57546 0.35067,0.24562 1.12615,0.23685 1.43862,-0.0163 0.44396,-0.35961 0.50196,-0.64067 0.50196,-2.43239 v -1.73168 h 0.28735 0.28735 l -0.003,1.75286 c -0.003,2.00926 -0.15297,2.54775 -0.82412,2.95694 -0.46661,0.28449 -1.37183,0.30525 -1.9025,0.0436 z m 10.43023,-1.01785 v -1.20689 h 1.09717 c 1.01164,0 1.11917,-0.022 1.3793,-0.28213 0.27764,-0.27764 0.36417,-0.74963 0.21073,-1.14948 -0.13628,-0.35513 -0.68203,-0.52239 -1.70449,-0.52239 -0.97159,0 -0.98271,-0.003 -0.98271,-0.28736 0,-0.28583 0.006,-0.28735 1.065,-0.28735 1.2462,0 1.74709,0.19672 2.07343,0.81434 0.32837,0.62145 0.20507,1.32521 -0.31582,1.80256 l -0.41839,0.38343 0.49328,0.88238 c 0.2713,0.4853 0.51184,0.92626 0.53454,0.97992 0.0227,0.0537 -0.10581,0.0806 -0.28555,0.06 -0.27413,-0.0315 -0.4077,-0.18116 -0.82867,-0.92837 l -0.50186,-0.8908 h -0.6781 -0.67809 v 0.91954 c 0,0.8429 -0.0192,0.91953 -0.22989,0.91953 -0.21528,0 -0.22988,-0.0766 -0.22988,-1.20689 z m 10.91945,-0.57471 v -1.79758 l 0.25862,0.0367 c 0.25507,0.0362 0.25862,0.0604 0.25862,1.76085 0,1.70047 -0.004,1.72463 -0.25862,1.76086 l -0.25862,0.0367 z m 8.96545,1.65278 c -0.35275,-0.14025 -0.91953,-0.66873 -0.91953,-0.85739 0,-0.26106 0.38437,-0.30042 0.56998,-0.0584 0.27271,0.35561 1.00762,0.61633 1.48493,0.52679 0.62118,-0.11654 1.04851,-0.46976 1.04851,-0.86668 0,-0.42006 -0.29523,-0.61852 -1.18901,-0.79929 -1.36696,-0.27648 -1.83082,-0.62442 -1.83082,-1.37331 0,-0.25211 0.0808,-0.58165 0.17948,-0.73231 0.24304,-0.37092 0.87544,-0.6531 1.46371,-0.6531 0.47735,0 0.48238,0.004 0.3135,0.25862 -0.10656,0.16056 -0.33797,0.28577 -0.61034,0.33024 -0.46371,0.0757 -0.85524,0.43958 -0.85524,0.79483 0,0.34393 0.49573,0.62909 1.4526,0.83556 1.12182,0.24207 1.52888,0.53906 1.60656,1.17217 0.071,0.57872 -0.22782,1.09099 -0.79286,1.35912 -0.44532,0.21132 -1.46452,0.2448 -1.92147,0.0631 z m 10.23346,-2.36317 c 0.003,-1.99314 0.0324,-2.47128 0.14368,-2.32926 1.57161,2.00589 2.18078,2.7523 2.24627,2.7523 0.0439,0 0.13775,-0.0905 0.20856,-0.20115 0.0708,-0.11063 0.57464,-0.76578 1.1196,-1.45589 l 0.99084,-1.25475 v 2.49037 c 0,2.40279 -0.008,2.49037 -0.22689,2.49037 -0.21452,0 -0.22862,-0.095 -0.25862,-1.74349 l -0.0317,-1.74347 -0.86206,1.11016 c -0.47414,0.6106 -0.89969,1.11069 -0.94568,1.11131 -0.046,4.3e-4 -0.45977,-0.476 -0.91953,-1.05916 l -0.83592,-1.06029 -0.0575,1.66374 c -0.0559,1.61786 -0.0646,1.66474 -0.31609,1.70046 l -0.25862,0.0367 0.004,-2.50798 z m 13.79015,2.30889 c -1.6212,-0.70305 -1.94853,-3.0692 -0.58348,-4.21782 1.12006,-0.94247 2.84066,-0.5914 3.5423,0.72279 0.23362,0.43757 0.27009,0.64446 0.23684,1.34332 -0.033,0.69416 -0.0943,0.90525 -0.38381,1.32182 -0.62376,0.89763 -1.83279,1.25446 -2.81185,0.82989 z m 1.38756,-0.39161 c 0.12108,0 0.42348,-0.1837 0.67199,-0.40821 0.87286,-0.78857 0.85433,-2.19636 -0.0399,-3.03282 -0.41314,-0.38645 -1.44586,-0.46108 -2.01759,-0.1458 -0.49582,0.27342 -0.9224,1.0467 -0.9224,1.67208 0,0.56509 0.38763,1.40242 0.76315,1.64846 0.32127,0.21051 0.94959,0.37772 1.17153,0.31178 0.0842,-0.025 0.25215,-0.0455 0.37323,-0.0455 z M 31.952766,82.799723 c -1.562523,-1.7379 -3.004436,-4.68242 -3.523441,-7.1952 -0.08072,-0.39079 -0.111817,-0.74547 -0.06911,-0.78817 0.04271,-0.0427 0.944994,0.13607 2.005082,0.39729 3.856221,0.95022 6.416528,1.23714 10.088289,1.13053 4.64328,-0.13482 8.689368,-1.01861 12.81599,-2.799439 2.722536,-1.174894 5.393325,-2.74431 7.159717,-4.207202 0.302815,-0.250785 0.577522,-0.429029 0.610457,-0.396091 0.08508,0.08508 0.270678,1.432838 0.273428,1.985522 0.0022,0.448001 -0.06027,0.526201 -1.750549,2.190527 -3.158471,3.109973 -5.947983,5.132073 -9.339006,6.769793 -4.886351,2.35989 -9.894879,3.50258 -15.362789,3.50498 l -2.374387,8.7e-4 z m 90.971424,-1.4179 c 0,-0.36803 0.0311,-0.41387 0.25862,-0.38155 0.20257,0.0288 0.25862,0.11147 0.25862,0.38155 0,0.27009 -0.056,0.35279 -0.25862,0.38156 -0.22755,0.0323 -0.25862,-0.0135 -0.25862,-0.38156 z m -33.197378,-0.0862 c 0.03601,-0.25366 0.07031,-0.25923 1.789592,-0.29035 l 1.752857,-0.0317 v 0.29035 0.29035 h -1.789588 -1.789588 z m -15.767746,-4.02592 c -2.618033,-0.89585 -4.176175,-3.09259 -4.176175,-5.887793 0,-2.855332 1.711422,-5.176825 4.398185,-5.965997 0.346238,-0.101699 1.040883,-0.183376 1.559585,-0.183376 1.058978,0 1.88228,0.207086 2.841047,0.714621 0.610224,0.32303 1.573705,1.185997 1.988768,1.78129 0.171585,0.246093 0.159317,0.263783 -0.369231,0.532397 l -0.546711,0.277849 -0.621887,-0.631906 c -0.388283,-0.394536 -0.907502,-0.767121 -1.382229,-0.991875 -0.693965,-0.328547 -0.86068,-0.359995 -1.909757,-0.36026 -1.053098,-2.3e-4 -1.213955,0.03028 -1.919606,0.364583 -2.067931,0.979659 -3.161236,3.412156 -2.564074,5.704817 0.397881,1.52757 1.250201,2.5981 2.564074,3.22053 0.705439,0.3342 0.866823,0.36487 1.919606,0.36487 1.049721,0 1.215366,-0.0312 1.909757,-0.36026 0.474283,-0.22472 0.994309,-0.59799 1.382229,-0.99216 l 0.621887,-0.6319 0.546711,0.27784 c 0.528548,0.26862 0.540816,0.28631 0.369231,0.5324 -0.721741,1.03514 -2.00091,1.9397 -3.270229,2.31253 -0.926008,0.272 -2.419934,0.23703 -3.341181,-0.0782 z m 12.120266,0.1003 c -4.328384,-1.35569 -5.714934,-6.979746 -2.55497,-10.3633 1.412246,-1.512173 3.608967,-2.132314 5.660452,-1.597972 1.964748,0.511753 3.603912,2.202044 4.143172,4.27241 0.220519,0.846629 0.219433,2.559076 -0.0022,3.409832 -0.545412,2.09397 -2.044808,3.66159 -4.071648,4.25693 -0.749822,0.22025 -2.50324,0.23245 -3.174848,0.0221 z m 3.547284,-1.54344 c 0.99316,-0.48894 1.770951,-1.3528 2.21813,-2.46361 0.292329,-0.726163 0.331771,-0.965535 0.325962,-1.978289 -0.0073,-1.275124 -0.245658,-2.09365 -0.880462,-3.02368 -1.457808,-2.135777 -4.658417,-2.477465 -6.583653,-0.702848 -2.370605,2.185145 -1.929251,6.641887 0.797825,8.056337 0.919417,0.47687 1.247156,0.5501 2.31681,0.51761 0.911819,-0.0277 1.143667,-0.0798 1.805388,-0.40552 z m 9.60611,1.48581 c -2.195702,-0.7024 -3.670948,-2.46577 -4.07787,-4.874311 -0.162848,-0.963897 -0.163565,-1.172369 -0.0071,-2.078849 0.53595,-3.105691 2.833411,-5.126676 5.828024,-5.126676 1.60334,0 3.02861,0.619829 4.1282,1.795296 0.8763,0.936764 1.36607,1.961647 1.58884,3.32479 0.15305,0.936537 0.15277,1.165345 -0.003,2.086521 -0.39537,2.344809 -1.8707,4.146369 -3.97644,4.855749 -0.91211,0.30727 -2.54948,0.31549 -3.481068,0.0175 z m 3.576694,-1.45917 c 1.65656,-0.78742 2.64365,-2.471465 2.64365,-4.51027 0,-2.589472 -1.8137,-4.6681 -4.20716,-4.821704 -2.208615,-0.14174 -4.077099,1.238041 -4.654436,3.43707 -0.722632,2.752452 0.558709,5.331374 3.057048,6.152854 0.269557,0.0886 0.863958,0.14 1.436768,0.12417 0.82014,-0.0227 1.09696,-0.084 1.72413,-0.38212 z m 39.85422,1.55302 c -0.55911,-0.13172 -1.29206,-0.50531 -1.84468,-0.94022 -0.45408,-0.35737 -1.2551,-1.44189 -1.1685,-1.58204 0.0271,-0.0439 0.28377,-0.14539 0.57037,-0.22563 l 0.52107,-0.1459 0.46304,0.52604 c 0.26136,0.29692 0.74908,0.66648 1.1198,0.84851 0.60401,0.29657 0.76295,0.32247 1.97859,0.32247 1.16693,0 1.38244,-0.0318 1.83907,-0.27159 1.02298,-0.53714 1.3793,-1.04844 1.3793,-1.97922 0,-0.528645 -0.044,-0.637077 -0.39152,-0.964834 -0.4426,-0.417426 -1.27515,-0.702799 -3.22914,-1.106871 -2.93312,-0.606549 -3.96549,-1.439728 -3.96549,-3.200374 0,-1.077761 0.19413,-1.58646 0.86173,-2.258198 0.80182,-0.806784 1.59258,-1.102132 3.1325,-1.169989 0.64798,-0.02854 1.17686,-0.0073 1.17529,0.04733 -0.002,0.05459 -0.17755,0.337292 -0.39108,0.62824 -0.37382,0.509337 -0.41452,0.531371 -1.09559,0.593129 -0.83013,0.07527 -1.79884,0.518395 -2.12734,0.973116 -0.14685,0.203276 -0.24139,0.555651 -0.26974,1.005399 -0.0365,0.579557 -0.003,0.744482 0.20822,1.011732 0.39702,0.503307 1.07049,0.774258 2.79667,1.125161 2.72716,0.554382 3.57403,0.933549 4.25225,1.903863 0.38949,0.557228 0.53057,1.634496 0.31729,2.422656 -0.30093,1.11199 -1.44407,2.0547 -2.89049,2.38368 -0.84322,0.19178 -2.53615,0.21975 -3.24162,0.0535 z m 19.90729,-0.0258 c -1.22729,-0.3456 -2.1846,-1.20417 -2.74217,-2.45934 l -0.29566,-0.66561 -0.0349,-4.453987 -0.0349,-4.453985 h 0.63316 0.63315 l 0.034,4.281575 c 0.0333,4.193257 0.0394,4.292567 0.29664,4.814737 0.36362,0.73807 0.85934,1.22229 1.59711,1.56005 0.53033,0.2428 0.75578,0.2803 1.45293,0.2417 0.92933,-0.0515 1.50889,-0.28556 2.04065,-0.8243 0.92844,-0.94062 1.02589,-1.53229 1.02589,-6.228875 v -3.844887 h 0.63218 0.63218 l -0.002,3.93675 c -0.002,4.305678 -0.0777,5.018612 -0.65177,6.153232 -0.38033,0.75171 -1.00862,1.33526 -1.86115,1.72863 -0.52536,0.24241 -0.84984,0.30405 -1.73792,0.33016 -0.64305,0.0189 -1.30792,-0.0287 -1.61731,-0.11585 z m -53.8995,-3.4626 v -3.5129 l 2.21263,-8.69e-4 c 1.21694,-3.47e-4 2.41147,-0.05586 2.65451,-0.123342 0.24304,-0.06748 0.63096,-0.295978 0.86206,-0.507764 0.41627,-0.381482 0.42018,-0.393589 0.42018,-1.30136 0,-1.046112 -0.13205,-1.282183 -0.91953,-1.643794 -0.39854,-0.183006 -0.77738,-0.211461 -2.84481,-0.213646 l -2.38504,-0.0026 v -0.632179 -0.63218 h 2.50786 c 3.06643,0 3.48827,0.09071 4.29614,0.923861 0.61503,0.634265 0.81718,1.190412 0.81314,2.237033 -0.003,0.813117 -0.20415,1.348199 -0.73253,1.949986 l -0.38547,0.439025 0.28489,0.181599 c 0.96868,0.61747 1.53391,1.639485 1.53425,2.77418 4.3e-4,1.47509 -0.72613,2.67504 -1.96721,3.24886 -0.50893,0.23532 -0.74612,0.25531 -3.44879,0.29068 l -2.90228,0.038 z m 5.87972,1.86225 c 0.66733,-0.3923 1.01678,-1.04852 1.01678,-1.90941 0,-0.765236 -0.20544,-1.250588 -0.72094,-1.703198 -0.55135,-0.484097 -1.23531,-0.613117 -3.2502,-0.613117 h -1.661 v 2.308135 2.30814 l 2.04022,-0.038 c 1.98351,-0.037 2.05507,-0.0468 2.57514,-0.35251 z m 4.35009,-1.28707 v -2.923368 l 2.69155,-0.03636 2.69157,-0.03636 0.49709,-0.349607 c 0.73767,-0.518799 1.01209,-1.081475 1.01439,-2.079914 0.002,-0.737463 -0.0358,-0.875997 -0.37167,-1.371293 -0.65071,-0.959732 -0.87705,-1.021207 -3.90801,-1.061479 l -2.61492,-0.03475 v -0.626171 -0.626172 h 2.63934 c 2.41355,0 2.69546,0.02098 3.29524,0.245403 0.80317,0.3005 1.57365,0.989837 1.96883,1.761458 0.42274,0.825464 0.48968,2.166552 0.15272,3.05969 -0.29395,0.779168 -0.89043,1.49997 -1.57158,1.89915 -0.27918,0.163604 -0.50759,0.327066 -0.50759,0.363244 0,0.03619 0.5402,1.026946 1.20044,2.201709 0.66023,1.17475 1.23473,2.22644 1.27665,2.33707 0.0674,0.17788 -0.005,0.20114 -0.62307,0.20114 -0.6014,0 -0.72159,-0.0362 -0.85852,-0.25861 -0.0876,-0.14225 -0.67066,-1.17495 -1.29575,-2.29491 l -1.13652,-2.036283 -1.63792,-0.0039 -1.63792,-0.0039 v 2.298833 2.29883 h -0.63217 -0.63218 z m 9.83746,2.14751 c 0.16244,-0.42673 0.59649,-1.57758 0.96455,-2.55745 0.36806,-0.979877 0.72246,-1.910906 0.78756,-2.06895 0.0651,-0.158044 0.35968,-0.933901 0.65462,-1.724124 0.29495,-0.790224 0.63516,-1.695387 0.75603,-2.011479 0.12088,-0.316088 0.41653,-1.091945 0.65702,-1.724125 l 0.43724,-1.149414 0.5961,-0.03471 c 0.6681,-0.03892 0.57802,-0.140932 1.09653,1.241622 1.07464,2.865406 1.86718,4.963414 3.12629,8.27579 1.04464,2.7482 1.02764,2.52871 0.19592,2.52871 h -0.68743 l -0.18235,-0.4885 c -0.90322,-2.41968 -3.0842,-8.31503 -3.25297,-8.793024 -0.11718,-0.331896 -0.23971,-0.602912 -0.27229,-0.60226 -0.0326,8.68e-4 -0.88681,2.224764 -1.89829,4.942474 l -1.83907,4.94128 -0.7174,2e-5 -0.71739,1e-5 z m 24.3002,-3.649396 v -4.436726 l 0.66091,0.03449 0.66092,0.03445 v 4.367783 4.367779 l -0.66092,0.0344 -0.66091,0.0345 z m 17.52285,4.279296 c -0.0308,-0.0803 -0.0421,-1.38629 -0.0251,-2.90227 l 0.0309,-2.756325 2.64365,-0.05747 c 2.28741,-0.04973 2.70261,-0.08676 3.08117,-0.274796 0.83771,-0.416096 1.28017,-1.298535 1.20928,-2.411771 -0.0577,-0.906454 -0.44697,-1.557505 -1.15841,-1.937562 -0.45601,-0.243599 -0.6636,-0.264699 -3.13204,-0.318359 l -2.64365,-0.05747 v -0.574705 -0.574709 l 2.61168,-0.03089 c 2.35508,-0.02785 2.67518,-0.0086 3.2581,0.196312 0.93575,0.328891 1.57673,0.903835 2.02673,1.817904 0.33574,0.681991 0.37873,0.87627 0.37443,1.692381 -0.003,0.682329 -0.0674,1.06004 -0.24566,1.453256 -0.30564,0.674314 -0.96797,1.409922 -1.6063,1.784005 -0.44949,0.263418 -0.48421,0.314754 -0.36502,0.539612 0.0725,0.136675 0.66665,1.191667 1.32045,2.344427 0.65381,1.15276 1.18874,2.12505 1.18874,2.16064 0,0.0356 -0.32266,0.0493 -0.71702,0.0305 l -0.71702,-0.0342 -1.27036,-2.24136 -1.27038,-2.241356 -1.69074,-0.0318 -1.69075,-0.0318 v 2.301896 2.30191 h -0.57831 c -0.36143,0 -0.59932,-0.0547 -0.63432,-0.14595 z M 35.855921,74.007023 c -6.647123,-0.400092 -10.924149,-1.99223 -12.756648,-4.748704 -1.841438,-2.76992 -1.310661,-6.010187 1.377428,-8.408869 0.585025,-0.52204 1.891419,-1.478922 2.019112,-1.478922 0.05351,0 -0.190538,0.400857 -0.542324,0.890797 -2.031107,2.828759 -2.138999,4.841697 -0.352132,6.569757 0.679116,0.656768 2.208587,1.734772 2.461289,1.734772 0.0866,0 0.149721,-0.133186 0.149807,-0.316087 2.07e-4,-0.439265 0.526205,-2.567469 0.870621,-3.522561 1.948956,-5.404608 6.86383,-9.531932 12.63487,-10.610288 1.423898,-0.266063 4.451501,-0.263418 5.891728,0.0051 5.682947,1.059719 10.495961,5.065053 12.505977,10.40732 0.203194,0.540056 0.419343,0.998552 0.480329,1.018879 0.06099,0.02033 0.487521,-0.254039 0.947854,-0.609711 0.638936,-0.493672 0.859895,-0.610181 0.933867,-0.49243 0.318042,0.506275 -1.142494,2.4301 -2.818847,3.713 -3.39244,2.596211 -9.668253,4.723677 -16.274255,5.516885 -2.588309,0.310782 -5.637502,0.444852 -7.528676,0.331022 z m -2.12642,-3.6021 c -0.09483,-0.06128 -0.249998,-0.10858 -0.344824,-0.105105 -0.113685,0.0043 -0.09411,0.03997 0.05747,0.105105 0.315984,0.13578 0.497463,0.13578 0.287354,0 z m 5.63214,-0.960144 c 0,-0.338426 -0.03269,-0.928062 -0.07264,-1.310304 l -0.07264,-0.694985 -0.788563,0.218525 c -1.495414,0.414398 -3.034398,0.933523 -3.988535,1.345388 -1.064169,0.459365 -1.057216,0.480926 0.231329,0.717318 0.894403,0.164082 2.483872,0.301252 3.742782,0.322995 l 0.948268,0.01638 z m 4.413482,0.498124 c 1.278565,-0.09218 4.659517,-0.527787 4.743759,-0.611188 0.01066,-0.01056 -0.09279,-0.6915 -0.229884,-1.513206 l -0.249265,-1.494014 -0.862062,0.03358 c -1.956043,0.07618 -5.705972,0.522922 -6.580408,0.783933 -0.169225,0.05052 -0.201147,0.202199 -0.201147,0.955787 0,0.49266 0.03289,1.135722 0.07309,1.429024 l 0.07309,0.533283 0.817702,-8.69e-4 c 0.449739,-4.35e-4 1.53654,-0.05284 2.415117,-0.116179 z M 31.085844,69.361369 c 0,-0.04791 -0.180446,-0.198636 -0.400988,-0.334942 -0.220544,-0.1363 -0.553039,-0.432283 -0.738876,-0.657736 l -0.337887,-0.409915 -0.07568,0.403424 c -0.136916,0.72983 -0.04713,0.927167 0.516291,1.134779 0.384885,0.141827 0.580418,0.159608 0.775856,0.07056 0.143708,-0.06548 0.261287,-0.158252 0.261287,-0.206169 z m 19.08569,-0.341897 c 1.331426,-0.289223 3.078796,-0.7925 4.304929,-1.239905 1.594344,-0.581765 1.769065,-0.700823 1.350564,-0.92029 -0.504481,-0.264557 -3.730222,-0.58912 -5.874483,-0.591066 -1.296262,-0.0013 -1.305104,8.69e-4 -1.242342,0.257432 0.03477,0.142239 0.125051,0.814646 0.200633,1.494239 0.07558,0.679593 0.145682,1.235622 0.155778,1.235622 0.01009,0 0.507311,-0.106213 1.104921,-0.236032 z M 32.261603,67.991149 c 0.121612,-1.250848 0.400196,-2.563672 0.779151,-3.671751 L 33.3727,63.348779 32.717774,62.744134 c -0.360209,-0.332553 -0.684494,-0.606975 -0.720633,-0.609829 -0.129204,-0.01021 -1.079745,1.772758 -1.492545,2.799591 -0.231227,0.575175 -0.516899,1.421009 -0.634826,1.879627 l -0.214414,0.833857 0.284214,0.282359 c 0.461743,0.458731 1.509161,0.985936 1.893395,0.953015 0.341426,-0.02924 0.345651,-0.03805 0.428638,-0.891605 z m 2.329961,-0.183531 c 0.632178,-0.227339 1.925272,-0.608895 2.87354,-0.847902 l 1.724125,-0.434556 0.03346,-0.803078 0.03346,-0.803073 -1.047764,-0.134368 C 37.083464,64.640373 35.696264,64.327986 34.90925,64.041692 l -0.486914,-0.177124 -0.339178,1.115021 c -0.319049,1.04885 -0.486931,1.803846 -0.624926,2.810413 -0.0325,0.237065 -0.04941,0.431014 -0.03758,0.430993 0.01183,-1.8e-5 0.538746,-0.186038 1.170925,-0.413377 z m 24.690282,-1.377979 c 0.493553,-0.287585 0.922638,-0.588737 0.953523,-0.669219 0.03088,-0.08049 -0.05585,-0.445685 -0.192738,-0.811558 L 59.79374,64.28364 59.580284,64.889767 c -0.22347,0.634565 -0.322656,0.780588 -1.072124,1.578405 -0.595276,0.633674 -0.35983,0.621949 0.773686,-0.03853 z m -0.770918,-0.909751 c 0.587815,-0.572624 0.731244,-0.789985 0.845272,-1.280959 l 0.13733,-0.591309 -0.545497,-0.90293 c -0.60339,-0.998761 -1.020795,-1.573314 -1.719089,-2.366313 l -0.465883,-0.529069 -0.474314,0.613013 c -0.260873,0.337157 -0.782955,0.830672 -1.160183,1.096701 l -0.685869,0.483689 0.503648,1.048937 c 0.277007,0.57692 0.672612,1.53567 0.879122,2.130563 0.368324,1.061027 0.384224,1.084199 0.835063,1.217046 0.585599,0.172558 0.879325,0.02663 1.8504,-0.919369 z m -16.321245,0.524038 c 1.600259,-0.240845 4.044241,-0.466564 5.051719,-0.466564 0.685658,0 0.686712,-0.0017 0.497624,-0.752532 -0.109391,-0.434434 -0.164432,-0.501405 -0.37356,-0.454548 -1.23775,0.277341 -6.195616,0.720776 -6.764148,0.604989 -0.103702,-0.02111 -0.158005,0.166889 -0.182203,0.630824 -0.02645,0.507148 0.0031,0.660917 0.126914,0.660917 0.08876,0 0.828406,-0.100391 1.643654,-0.223086 z m 13.493667,-0.0043 c 0,-0.421401 -1.524332,-3.680757 -1.721411,-3.680757 -0.04893,0 -0.475049,0.175951 -0.94694,0.391 -0.943364,0.429902 -2.558572,0.963233 -3.862279,1.275293 l -0.841019,0.201308 0.07356,0.474236 c 0.144486,0.931481 0.05701,0.876531 1.395297,0.876531 1.420939,0 3.697061,0.193519 4.753376,0.404137 0.942791,0.187984 1.149416,0.198454 1.149416,0.05825 z M 39.456777,62.732431 c 0.07767,-0.679593 0.17153,-1.44869 0.208574,-1.709106 l 0.06735,-0.473484 -0.559093,-0.08166 c -0.307501,-0.04492 -0.939836,-0.208406 -1.40519,-0.363318 -0.688002,-0.229024 -0.878474,-0.254786 -1.019364,-0.137856 -0.242442,0.201208 -1.197646,1.634763 -1.593745,2.391866 -0.552828,1.056678 -0.551353,1.013479 -0.03931,1.151356 0.802942,0.216209 2.436393,0.435207 3.331796,0.446693 l 0.867756,0.01112 0.14122,-1.235622 z m 4.249406,1.058307 c 2.02181,-0.227626 3.586429,-0.507417 3.586429,-0.641342 0,-0.180495 -0.823376,-2.682048 -0.915032,-2.780016 -0.04783,-0.05113 -0.545471,-0.007 -1.105869,0.09797 -0.614626,0.11517 -1.69295,0.197659 -2.717697,0.207898 -1.400624,0.01399 -1.707748,0.04723 -1.749828,0.189383 -0.05927,0.200218 -0.261916,1.76198 -0.33184,2.557451 l -0.04799,0.545973 h 0.853439 c 0.469392,0 1.562168,-0.07979 2.428391,-0.177315 z m 5.970259,-1.087514 c 1.324745,-0.369843 2.172329,-0.679427 3.050971,-1.114395 0.532361,-0.263544 0.544131,-0.280239 0.371454,-0.526919 -0.252261,-0.360373 -1.522837,-1.646748 -2.078889,-2.104741 l -0.468002,-0.38547 -1.08371,0.544283 c -0.59604,0.299358 -1.349952,0.634477 -1.675363,0.744713 l -0.591652,0.200422 0.32474,1.04464 c 0.178606,0.574553 0.358881,1.246717 0.400608,1.493701 0.09369,0.554513 0.128,0.55655 1.749843,0.103766 z M 33.887827,62.272666 c 0.414883,-0.853802 0.912301,-1.648348 1.541624,-2.462504 l 0.504112,-0.652167 -0.289745,-0.426397 -0.289744,-0.426401 -1.243317,1.250983 c -1.43855,1.447413 -1.929783,2.105749 -1.822795,2.442842 0.06372,0.200743 1.011775,0.934556 1.207418,0.934556 0.03921,0 0.215811,-0.297411 0.392447,-0.660912 z m 20.579789,-1.870235 c 0.544703,-0.582333 0.870909,-1.179889 0.870909,-1.595365 0,-0.248208 -0.610146,-0.781665 -1.630905,-1.425917 -0.622513,-0.392894 -1.525374,-0.884303 -1.624736,-0.884303 -0.02554,0 -0.132348,0.224967 -0.237355,0.499919 -0.105006,0.274957 -0.318439,0.619716 -0.474294,0.766135 l -0.283373,0.266216 1.068051,1.101667 c 0.587428,0.605918 1.167051,1.269772 1.288051,1.475229 0.121002,0.205457 0.279357,0.373557 0.351903,0.373557 0.07254,0 0.374833,-0.259712 0.671749,-0.577138 z M 44.850103,59.47115 c 0.584766,-0.07819 1.06321,-0.176259 1.06321,-0.217942 0,-0.04166 -0.271549,-0.508699 -0.603444,-1.037815 -1.181058,-1.882889 -2.375114,-2.183924 -3.303773,-0.832919 -0.268215,0.390196 -0.733166,1.475703 -0.871667,2.035055 l -0.08282,0.334499 1.367645,-0.06936 c 0.752204,-0.03814 1.846088,-0.133329 2.430854,-0.211517 z m -4.687562,-0.618 c 0.10508,-0.379305 0.30116,-0.935334 0.435734,-1.235622 0.134575,-0.300283 0.216694,-0.545972 0.182488,-0.545972 -0.03421,0 -0.461884,0.207942 -0.950397,0.462094 -0.90393,0.470278 -2.233872,1.456648 -2.244477,1.664647 -0.0076,0.148721 1.227745,0.387502 1.879527,0.363296 l 0.506072,-0.01881 z m 8.841303,-0.371133 0.849172,-0.303394 -0.32566,-0.259669 c -0.435411,-0.347188 -1.84893,-0.931863 -2.907269,-1.20254 -1.310225,-0.335098 -1.336494,-0.323313 -0.855542,0.383879 0.225718,0.331892 0.560721,0.921207 0.744451,1.309583 l 0.334057,0.706141 0.655811,-0.165304 c 0.360695,-0.09092 1.037937,-0.301829 1.50498,-0.468696 z M 36.931751,58.201286 c 1.322997,-1.212914 3.083152,-2.160717 4.805859,-2.587848 1.175751,-0.291516 3.386822,-0.266676 4.603128,0.05172 1.308001,0.342396 2.465565,0.845221 3.477241,1.510456 l 0.858714,0.564653 0.442026,-0.350095 c 0.428535,-0.339403 0.848556,-0.859896 0.758392,-0.939809 -0.15446,-0.136887 -0.930103,-0.468166 -1.634389,-0.698051 -3.956862,-1.291532 -8.434544,-0.954245 -12.141751,0.914604 -1.142515,0.575952 -2.417462,1.423919 -2.417462,1.607854 0,0.121001 0.40264,0.492104 0.558592,0.514837 0.02275,0.0035 0.333088,-0.261428 0.68965,-0.588321 z m 112.429019,7.778202 v -0.63218 h 4.36778 4.36778 v 0.63218 0.632179 h -4.36778 -4.36778 z M 65.444671,65.555411 c -0.0048,-0.01955 -0.09552,-0.682069 -0.201608,-1.472293 l -0.192891,-1.436769 -1.288797,-0.86206 c -0.708838,-0.474136 -1.290523,-0.889181 -1.292633,-0.922328 -0.0032,-0.05009 6.438358,-1.157555 6.684778,-1.149288 0.04371,0.0013 -0.302627,0.610419 -0.769636,1.353229 -0.467009,0.74281 -1.276624,2.039604 -1.799144,2.881767 -0.839182,1.35253 -1.10924,1.733373 -1.140069,1.607742 z"
         id="path886" />
      <path
         style="fill:#cccccc;fill-opacity:1;stroke-width:0.357143"
         d="m 120.77863,312.60427 c -5.74497,-6.80377 -10.35229,-15.94676 -12.71101,-25.22437 -1.02902,-4.04746 -1.03971,-4.3292 -0.16425,-4.3292 0.378,0 3.79318,0.71381 7.58928,1.58625 13.11925,3.01515 18.18634,3.70949 29.22343,4.00447 8.82256,0.2358 16.44965,-0.17966 24.46428,-1.33262 20.47502,-2.94544 42.00472,-11.85721 57.95319,-23.98849 1.82067,-1.38491 3.38422,-2.44412 3.47454,-2.3538 0.37302,0.37303 0.99537,6.98763 0.74959,7.96692 -0.47303,1.88468 -11.76233,12.7745 -20.03446,19.32553 -17.04112,13.49555 -39.50624,22.72952 -62.5,25.68975 -4.15169,0.53449 -16.95722,1.22631 -22.92912,1.23874 l -2.92913,0.006 z"
         id="path922"
         transform="scale(0.26458333)" />
      <path
         style="fill:#cccccc;fill-opacity:1;stroke-width:0.357143"
         d="m 158.93752,334.48635 c -8.62642,-1.57017 -16.58549,-4.6722 -24.16328,-9.41756 l -1.90613,-1.19366 6.00893,-0.25377 c 27.04111,-1.14201 51.28083,-9.08958 72.19446,-23.67069 4.5581,-3.17794 9.39522,-7.08486 14.70476,-11.87696 2.53096,-2.2843 4.51627,-3.82938 4.59953,-3.57959 0.46104,1.3831 -2.56944,10.63587 -5.20039,15.87801 -3.59093,7.15491 -7.58128,12.44037 -13.69655,18.14191 -8.66216,8.07612 -19.303,13.43197 -31.04849,15.62763 -6.02868,1.12698 -16.2908,1.29155 -21.49284,0.34468 z"
         id="path924"
         transform="scale(0.26458333)" />
      <path
         style="fill:#cccccc;fill-opacity:1;stroke-width:0.357143"
         d="m 247.44409,246.72393 c -0.10186,-0.35064 -0.4573,-2.75046 -0.78987,-5.33295 l -0.60465,-4.69543 -4.12372,-2.80457 -4.12371,-2.80457 9.93932,-0.095 c 5.46663,-0.0523 10.00607,-0.0283 10.08765,0.0533 0.15015,0.15015 -8.39294,13.99528 -9.56463,15.50068 -0.57523,0.73906 -0.65266,0.75591 -0.82039,0.17857 z"
         id="path926"
         transform="scale(0.26458333)" />
    </g>
  </g>
</svg>
